PathFileType	4	(X/Y/Z)	D:\TRACE\v60_Jaco2_6-2-23\JustBodyDRS_Motion3_1-platform.trc
DataRate	CameraRate	NumFrames	NumMarkers	Units	OrigDataRate	OrigDataStartFrame	OrigNumFrames
100.00	100.00	      24	5	mm	100.00	2626	      7000
Frame#	Time	Left_Front			Right_Front			Left_Aft			Right_Aft			Post			
		X1	Y1	Z1	X2	Y2	Z2	X3	Y3	Z3	X4	Y4	Z4	X5	Y5	Z5	

2626	26.250	-772.53821	72.42026	-632.77820	798.20062	70.28839	-609.92316	-703.57678	-32.95614	496.49081	710.65704	-43.38406	601.36188	22.16977	1394.18872	-822.41528	
2627	26.260	-772.57031	72.59310	-632.75055	798.03943	70.61768	-609.71722	-703.64441	-33.43960	496.48376	710.78961	-43.72762	601.61127	22.25082	1394.90576	-821.16833	
2628	26.270	-772.65338	72.96072	-632.57068	797.90759	70.98252	-609.53619	-703.78259	-33.88465	496.69397	710.52661	-44.17613	601.82922	22.08140	1395.58472	-819.74133	
2629	26.280	-772.58154	73.59866	-632.10822	797.70972	71.50706	-609.43823	-703.98657	-34.11143	496.75070	710.86060	-44.10875	602.11249	22.02427	1396.15808	-818.59918	
2630	26.290	-772.60046	74.13493	-631.84088	797.65802	72.17377	-609.16595	-704.19464	-34.41803	496.71243	710.19067	-44.75113	602.04053	21.15108	1396.84644	-816.99353	
2631	26.300	-772.72522	74.36533	-631.67767	797.42474	72.58294	-609.08331	-704.47937	-34.70828	496.72620	710.11652	-45.62479	601.99506	21.17280	1397.52490	-815.57825	
2632	26.310	-773.12982	74.97202	-631.84186	797.26288	73.06329	-608.94440	-704.70032	-35.08962	496.84772	710.04333	-46.02268	602.02228	20.97471	1397.92432	-814.38934	
2633	26.320	-773.19287	75.35766	-631.73877	797.13300	73.65144	-608.81268	-704.88593	-35.45613	496.94714	709.70618	-46.54187	601.96729	20.73358	1398.66846	-812.80957	
2634	26.330	-773.44000	75.98741	-631.44141	797.05078	74.20284	-608.65686	-705.00378	-35.86363	497.09677	709.67749	-46.72115	602.14154	20.87272	1399.33801	-811.67352	
2635	26.340	-773.78510	76.55592	-631.06763	796.81256	74.63867	-608.51892	-705.13361	-36.31665	497.27484	709.60681	-47.13701	602.27734	20.74597	1399.95923	-810.67401	
2636	26.350	-774.41138	77.36242	-630.47192	796.81146	75.06226	-608.29047	-705.31458	-36.52811	497.26837	709.43799	-47.43848	602.27783	20.36265	1400.77441	-809.46667	
2637	26.360	-774.42426	77.88686	-630.53949	796.49762	75.64771	-608.15979	-705.55042	-36.84826	497.45203	709.12854	-48.05674	602.18921	20.32771	1401.29858	-808.58978	
2638	26.370	-774.41608	78.17345	-630.74060	796.36615	76.07732	-607.91284	-705.71948	-37.25195	497.51163	708.72040	-48.58903	602.29468	19.95528	1401.95972	-807.39844	
2639	26.380	-774.41168	78.50101	-630.50415	796.24805	76.57524	-607.69019	-705.90204	-37.71267	497.50870	708.50922	-49.14804	602.43182	19.76247	1402.53052	-806.25000	
2640	26.390	-774.53210	78.96126	-630.31238	795.93915	77.08011	-607.48108	-705.88959	-37.99958	497.52420	708.46832	-49.52642	602.45880	19.45489	1403.32776	-805.20874	
2641	26.400	-774.64795	79.42475	-630.27972	795.82367	77.60189	-607.36707	-706.15393	-38.33129	497.65921	708.13586	-50.07796	602.49805	19.64769	1403.95349	-803.98981	
2642	26.410	-775.05542	80.33662	-630.47461	795.61951	78.10035	-607.25043	-706.28912	-38.73142	497.67859	708.49115	-49.91256	602.73456	19.20329	1404.46851	-802.68347	
2643	26.420	-775.22363	80.80607	-630.28363	795.39008	78.56433	-607.02533	-706.37805	-39.20186	497.78427	708.32599	-50.25844	602.79315	19.10699	1405.23315	-801.52893	
2644	26.430	-775.29828	81.09139	-629.99872	795.20392	78.84145	-606.81873	-706.67725	-39.54244	497.97733	707.79657	-50.94888	602.39032	19.06199	1405.64612	-800.32043	
2645	26.440	-775.64954	81.59586	-629.78510	794.89355	79.19495	-606.72821	-706.82709	-39.79815	498.09814	707.56262	-51.44285	602.42072	18.58532	1405.92224	-798.89386	
2646	26.450	-775.75427	82.14624	-629.50037	794.87469	79.63673	-606.60559	-707.09625	-40.07871	498.09164	707.56042	-51.75254	602.80347	18.39675	1406.58203	-797.88849	
2647	26.460	-776.04596	82.59512	-629.47424	794.74719	80.34100	-606.36456	-707.33844	-40.27962	498.07169	707.53619	-52.02550	603.11615	18.27167	1407.25537	-796.87854	
2648	26.470	-776.29297	82.95823	-629.29047	794.53680	80.68867	-606.14270	-707.44537	-40.46084	498.17941	707.27472	-52.43366	603.09070	17.92801	1407.91357	-795.90741	
2649	26.480	-776.33313	83.22096	-629.17328	794.36365	81.10865	-606.08258	-707.73779	-40.89706	498.27011	706.88495	-52.94653	603.04968	17.76085	1408.35608	-794.79749	
